<svg width="127" height="35" viewBox="0 0 127 35" fill="none" xmlns="http://www.w3.org/2000/svg">
<rect x="4.37891" y="5.06641" width="26.776" height="24.6993" fill="white"/>
<path d="M8.98219 0.0580525C6.69798 0.260714 4.58298 1.24024 2.91635 2.88686C1.42739 4.3646 0.378344 6.45876 0.0737829 8.54448C0.00610272 9.01736 -0.0108173 11.7364 0.00610272 17.9513C0.0399428 26.632 0.0399428 26.6995 0.226063 27.3835C1.21589 31.0905 3.82157 33.7082 7.51861 34.7046C8.64379 35.0002 9.34597 35.0171 18.009 34.9917C27.2474 34.958 26.8413 34.9749 28.288 34.4851C31.7227 33.3198 34.2607 30.3052 34.8868 26.6573C35.0052 26.0156 35.0137 24.7067 34.9883 17.1407L34.9629 8.36715L34.7768 7.6494C33.9816 4.66015 32.1542 2.38021 29.4724 1.03758C28.804 0.708257 27.4758 0.277601 26.6383 0.125605C25.9953 0.00738618 10.2766 -0.0517223 8.98219 0.0580525ZM11.1987 8.16449C12.2224 8.40093 13.5083 8.69648 14.0497 8.83159L15.0396 9.06802L15.6572 8.89069C16.537 8.64581 18.3813 8.64581 19.2696 8.89069L19.9041 9.05958L22.2306 8.5276C23.5165 8.23205 24.794 7.92806 25.0647 7.85206C25.9022 7.62406 26.8159 7.90272 27.4081 8.55293C27.975 9.1778 27.9496 8.86536 27.9496 16.2203C27.9496 22.5619 27.9411 22.9081 27.7888 23.305C27.5943 23.8116 27.1459 24.3183 26.689 24.5631C26.156 24.8418 25.217 24.8165 24.6248 24.5125C24.1341 24.2592 23.7534 23.7947 23.5334 23.1952C23.4319 22.9081 23.2289 22.6632 22.789 22.2579C22.4506 21.9623 22.1375 21.7006 22.0868 21.6837C22.0445 21.6752 21.7399 21.8272 21.4269 22.0299C21.1054 22.2325 20.5555 22.5112 20.2086 22.6548L19.5741 22.9081L19.5488 23.3725L19.5234 23.8454L20.4624 23.8792C21.3761 23.9045 21.4184 23.9129 21.613 24.1409C21.8076 24.3774 21.8161 24.4112 21.8161 25.9227C21.8161 27.3666 21.8076 27.4848 21.6384 27.696L21.4607 27.9239L18.9058 27.8986L16.3424 27.8733L15.9279 27.62C15.6149 27.4173 15.4541 27.24 15.2595 26.86L15.0057 26.3618L14.9803 24.5294L14.9465 22.6885L14.6842 22.5956C14.532 22.5534 14.1936 22.3761 13.9228 22.2157L13.4237 21.9201L12.4677 22.4352C11.6809 22.8574 11.5033 22.9925 11.4694 23.1783C11.3848 23.5921 10.8772 24.2085 10.4204 24.4703C9.26983 25.1205 7.89931 24.7067 7.29019 23.533L7.011 23.001V16.3385C7.011 10.0222 7.01946 9.65912 7.17175 9.26224C7.44247 8.53604 7.85701 8.13072 8.56765 7.88583C8.80453 7.80984 9.07525 7.74228 9.16831 7.73384C9.26137 7.73384 10.1751 7.92806 11.1987 8.16449Z" fill="black"/>
<path d="M49.2017 27V8.81818H60.1747V10.7713H51.4034V16.9148H59.6065V18.8679H51.4034V25.0469H60.3168V27H49.2017ZM65.9542 18.7969V27H63.859V13.3636H65.8832V15.4943H66.0607C66.3803 14.8018 66.8656 14.2455 67.5167 13.8253C68.1677 13.3991 69.0082 13.1861 70.038 13.1861C70.9613 13.1861 71.7692 13.3755 72.4616 13.7543C73.1541 14.1271 73.6927 14.6953 74.0774 15.4588C74.4621 16.2164 74.6545 17.1752 74.6545 18.3352V27H72.5593V18.4773C72.5593 17.406 72.2811 16.5715 71.7248 15.9737C71.1684 15.37 70.4049 15.0682 69.4343 15.0682C68.7655 15.0682 68.1677 15.2132 67.641 15.5032C67.1201 15.7932 66.7088 16.2164 66.407 16.7727C66.1051 17.3291 65.9542 18.0038 65.9542 18.7969ZM87.787 32.1136V24.9048H87.6095C87.4556 25.1534 87.2366 25.4671 86.9525 25.8459C86.6684 26.2187 86.263 26.5531 85.7362 26.8491C85.2095 27.1391 84.5081 27.2841 83.6322 27.2841C82.4958 27.2841 81.4926 26.997 80.6226 26.4229C79.7526 25.8429 79.0719 25.0262 78.5807 23.9727C78.0895 22.9132 77.8438 21.6615 77.8438 20.2173C77.8438 18.785 78.0895 17.5421 78.5807 16.4886C79.0719 15.4351 79.7555 14.6213 80.6315 14.0472C81.5074 13.4731 82.5195 13.1861 83.6677 13.1861C84.5555 13.1861 85.2568 13.334 85.7718 13.63C86.2926 13.92 86.6891 14.2514 86.9614 14.6243C87.2396 14.9912 87.4556 15.2931 87.6095 15.5298H87.858V13.3636H89.8822V32.1136H87.787ZM83.9163 25.402C84.7567 25.402 85.4669 25.183 86.047 24.745C86.627 24.3011 87.0679 23.6886 87.3698 22.9073C87.6716 22.1201 87.8225 21.2116 87.8225 20.1818C87.8225 19.1638 87.6746 18.2731 87.3786 17.5096C87.0827 16.7402 86.6447 16.1424 86.0647 15.7163C85.4847 15.2842 84.7686 15.0682 83.9163 15.0682C83.0285 15.0682 82.2887 15.296 81.6968 15.7518C81.1109 16.2016 80.67 16.8142 80.374 17.5895C80.084 18.3589 79.939 19.223 79.939 20.1818C79.939 21.1525 80.087 22.0343 80.3829 22.8274C80.6847 23.6146 81.1286 24.242 81.7146 24.7095C82.3064 25.1712 83.0403 25.402 83.9163 25.402ZM99.6123 27H94.0015V8.81818H99.8609C101.625 8.81818 103.134 9.18217 104.389 9.91016C105.643 10.6322 106.605 11.6709 107.274 13.0263C107.943 14.3757 108.277 15.9915 108.277 17.8736C108.277 19.7675 107.94 21.3981 107.265 22.7653C106.59 24.1265 105.608 25.1741 104.318 25.908C103.027 26.636 101.459 27 99.6123 27ZM96.2032 25.0469H99.4703C100.974 25.0469 102.219 24.7569 103.208 24.1768C104.196 23.5968 104.933 22.7712 105.418 21.6999C105.904 20.6287 106.146 19.3532 106.146 17.8736C106.146 16.4058 105.907 15.1422 105.427 14.0827C104.948 13.0174 104.232 12.2006 103.279 11.6325C102.326 11.0584 101.139 10.7713 99.7188 10.7713H96.2032V25.0469ZM111.97 27V8.81818H118.327C119.593 8.81818 120.638 9.03717 121.461 9.47514C122.283 9.9072 122.896 10.4902 123.298 11.2241C123.701 11.9521 123.902 12.7599 123.902 13.6477C123.902 14.429 123.763 15.0741 123.485 15.5831C123.213 16.0921 122.852 16.4946 122.402 16.7905C121.958 17.0864 121.475 17.3054 120.955 17.4474V17.625C121.511 17.6605 122.07 17.8558 122.633 18.2109C123.195 18.5661 123.665 19.075 124.044 19.7379C124.423 20.4008 124.612 21.2116 124.612 22.1705C124.612 23.0819 124.405 23.9016 123.991 24.6296C123.577 25.3576 122.923 25.9347 122.029 26.3608C121.135 26.7869 119.972 27 118.54 27H111.97ZM114.172 25.0469H118.54C119.978 25.0469 120.999 24.7687 121.603 24.2124C122.212 23.6501 122.517 22.9695 122.517 22.1705C122.517 21.5549 122.36 20.9867 122.047 20.4659C121.733 19.9392 121.286 19.5189 120.706 19.2053C120.126 18.8857 119.439 18.7259 118.646 18.7259H114.172V25.0469ZM114.172 16.8082H118.256C118.919 16.8082 119.516 16.678 120.049 16.4176C120.588 16.1572 121.014 15.7902 121.328 15.3168C121.647 14.8433 121.807 14.2869 121.807 13.6477C121.807 12.8487 121.529 12.171 120.972 11.6147C120.416 11.0524 119.534 10.7713 118.327 10.7713H114.172V16.8082Z" fill="black"/>
</svg>
