<svg xmlns="http://www.w3.org/2000/svg" version="1.1" xmlns:xlink="http://www.w3.org/1999/xlink" xmlns:svgjs="http://svgjs.com/svgjs" width="552" height="553"><svg width="552" height="553" viewBox="0 0 552 553" fill="none" xmlns="http://www.w3.org/2000/svg">
<path d="M141.563 0.918152C105.563 4.11815 72.2295 19.5848 45.9629 45.5848C22.4962 68.9181 5.96285 101.985 1.16285 134.918C0.0961813 142.385 -0.170485 185.318 0.0961813 283.451C0.629515 420.518 0.629515 421.585 3.56285 432.385C19.1629 490.918 60.2295 532.251 118.496 547.985C136.23 552.652 147.296 552.918 283.83 552.518C429.43 551.985 423.03 552.252 445.83 544.518C499.963 526.118 539.963 478.518 549.83 420.918C551.696 410.785 551.83 390.118 551.43 270.651L551.03 132.118L548.096 120.785C535.563 73.5848 506.763 37.5848 464.496 16.3848C453.963 11.1848 433.03 4.3848 419.83 1.9848C409.696 0.118135 161.963 -0.815182 141.563 0.918152ZM176.496 128.918C192.63 132.651 212.896 137.318 221.43 139.451L237.03 143.185L246.763 140.385C260.63 136.518 289.696 136.518 303.696 140.385L313.696 143.051L350.363 134.651C370.63 129.985 390.763 125.185 395.03 123.985C408.23 120.385 422.63 124.785 431.963 135.051C440.896 144.918 440.496 139.985 440.496 256.118C440.496 356.251 440.363 361.718 437.963 367.985C434.896 375.985 427.83 383.985 420.63 387.851C412.23 392.251 397.43 391.851 388.096 387.051C380.363 383.051 374.363 375.718 370.896 366.251C369.296 361.718 366.096 357.851 359.163 351.451C353.83 346.785 348.896 342.651 348.096 342.385C347.43 342.251 342.63 344.651 337.696 347.851C332.63 351.051 323.963 355.451 318.496 357.718L308.496 361.718L308.096 369.051L307.696 376.518L322.496 377.051C336.896 377.451 337.563 377.585 340.63 381.185C343.696 384.918 343.83 385.451 343.83 409.318C343.83 432.118 343.696 433.985 341.03 437.318L338.23 440.918L297.963 440.518L257.563 440.118L251.03 436.118C246.096 432.918 243.563 430.118 240.496 424.118L236.496 416.251L236.096 387.318L235.563 358.251L231.43 356.785C229.03 356.118 223.696 353.318 219.43 350.785L211.563 346.118L196.496 354.251C184.096 360.918 181.296 363.051 180.763 365.985C179.43 372.518 171.43 382.251 164.23 386.385C146.096 396.651 124.496 390.118 114.896 371.585L110.496 363.185V257.985C110.496 158.251 110.63 152.518 113.03 146.251C117.296 134.785 123.83 128.385 135.03 124.518C138.763 123.318 143.03 122.251 144.496 122.118C145.963 122.118 160.363 125.185 176.496 128.918Z" fill="black"></path>
</svg><style>@media (prefers-color-scheme: light) { :root { filter: none; } }
</style></svg>