<svg width="621" height="233" viewBox="0 0 621 233" fill="none" xmlns="http://www.w3.org/2000/svg">
<path d="M218.187 100.892V106.105C215.495 102.742 210.953 99.7988 204.981 99.7988C192.534 99.7988 183.029 109.72 183.029 121.828C183.029 133.432 192.869 144.278 204.981 144.278C210.953 144.278 215.495 141.42 218.187 138.056V143.185H233.494V100.892H218.187ZM218.859 123.426C217.934 128.471 214.065 131.666 209.018 131.666C202.626 131.666 198.842 127.294 198.842 121.828C198.842 115.859 202.29 112.411 209.018 112.411C214.065 112.411 217.934 115.691 218.859 120.735V123.426Z" fill="#042582"/>
<path d="M270.055 100.63C264.085 100.63 259.543 103.489 256.766 106.852V101.723H241.877V144.016H257.185V121.482C258.027 116.437 260.972 113.242 265.429 113.242C270.393 113.242 271.737 115.26 271.737 121.062V144.016H287.045V121.062C287.045 108.029 281.998 100.63 270.055 100.63Z" fill="#042582"/>
<path d="M313.787 112.753H325.984V100.561H313.787V83.9971H298.479V100.561H291.078V112.753H298.479V142.855H313.787V112.753Z" fill="#042582"/>
<path d="M347.194 113C347.194 111.739 348.12 111.15 352.156 111.15C356.026 111.15 359.728 112.075 363.344 114.177L368.307 104.171C363.428 101.228 358.381 99.7988 351.146 99.7988C340.718 99.7988 331.634 102.994 331.634 113.084C331.634 120.315 337.27 123.51 343.578 125.78C350.642 128.303 352.829 129.228 352.829 131.077C352.829 132.255 351.652 132.843 347.448 132.843C343.999 132.843 338.28 131.162 334.327 128.891L329.701 139.57C335.083 142.597 340.802 144.278 348.962 144.278C359.895 144.278 368.39 141.42 368.39 130.741C368.39 123.09 363.006 120.063 355.27 117.456C348.541 115.186 347.194 114.597 347.194 113Z" fill="#042582"/>
<path d="M394.71 112.591H406.906V100.399H394.71V83.835H379.402V100.399H372V112.591H379.402V142.693H394.71V112.591Z" fill="#042582"/>
<path d="M445.463 100.892V106.105C442.77 102.742 438.228 99.7988 432.258 99.7988C419.81 99.7988 410.305 109.72 410.305 121.828C410.305 133.432 420.145 144.278 432.258 144.278C438.228 144.278 442.77 141.42 445.463 138.056V143.185H460.77V100.892H445.463ZM446.135 123.426C445.209 128.471 441.342 131.666 436.295 131.666C429.901 131.666 426.118 127.294 426.118 121.828C426.118 115.859 429.566 112.411 436.295 112.411C441.342 112.411 445.209 115.691 446.135 120.735V123.426Z" fill="#042582"/>
<path d="M492.956 131.666C487.404 131.666 483.284 127.966 483.284 121.912C483.367 115.606 486.481 112.411 492.367 112.411C495.986 112.411 500.19 113.168 503.976 114.765V101.985C500.106 100.556 496.993 99.7988 492.367 99.7988C479.247 99.7988 467.471 108.543 467.471 121.912C467.471 135.029 479.163 144.278 492.367 144.278C496.49 144.278 500.528 143.69 503.976 142.513V129.648C499.434 131.33 496.153 131.666 492.956 131.666Z" fill="#042582"/>
<path d="M558.06 142.692L533.919 118.309L556.799 100.399H537.538L526.267 109.228V71.9795H511.126V142.692H526.267V129.492L539.05 142.692H558.06Z" fill="#042582"/>
<path d="M572.067 71.749C574.677 71.749 577.016 72.3501 579.085 73.5525C581.154 74.7102 582.773 76.3355 583.943 78.4283C585.112 80.4767 585.697 82.7922 585.697 85.3748C585.697 87.9576 585.112 90.2953 583.943 92.3882C582.773 94.481 581.154 96.1286 579.085 97.3308C577.016 98.4886 574.677 99.0675 572.067 99.0675C569.414 99.0675 567.052 98.4886 564.982 97.3308C562.913 96.1286 561.294 94.481 560.124 92.3882C558.955 90.2953 558.37 87.9576 558.37 85.3748C558.37 82.7922 558.955 80.4767 560.124 78.4283C561.294 76.3355 562.913 74.7102 564.982 73.5525C567.052 72.3501 569.414 71.749 572.067 71.749ZM572.067 96.3957C575.307 96.3957 577.915 95.3716 579.894 93.3233C581.919 91.275 582.931 88.6254 582.931 85.3748C582.931 82.1243 581.919 79.4747 579.894 77.4264C577.915 75.3781 575.307 74.354 572.067 74.354C568.784 74.354 566.152 75.3781 564.173 77.4264C562.238 79.4747 561.272 82.1243 561.272 85.3748C561.272 88.6254 562.238 91.275 564.173 93.3233C566.152 95.3716 568.784 96.3957 572.067 96.3957ZM578.14 82.5695C578.14 83.6383 577.848 84.551 577.263 85.308C576.723 86.0206 575.959 86.5326 574.969 86.8443L578.748 92.3882L574.497 92.455L571.258 87.1115H570.111V92.455H566.602V78.0944H573.08C574.609 78.0944 575.824 78.4952 576.723 79.2966C577.668 80.0982 578.14 81.1892 578.14 82.5695ZM570.111 84.2394H572.877C573.372 84.2394 573.777 84.1058 574.092 83.8386C574.451 83.5715 574.631 83.1929 574.631 82.7032C574.631 82.2133 574.451 81.8571 574.092 81.6344C573.777 81.3673 573.372 81.2336 572.877 81.2336H570.111V84.2394Z" fill="#042582"/>
<path fill-rule="evenodd" clip-rule="evenodd" d="M127.816 56.5039C132.401 53.7615 138.253 50.3591 143.336 47.6188C145.916 46.2278 148.284 45.0145 150.182 44.1457C151.132 43.7107 151.949 43.3694 152.605 43.1363C153.301 42.8892 153.698 42.8082 153.856 42.8031C155.512 42.7499 156.389 41.6924 156.745 40.7647C157.118 39.7923 157.09 38.608 156.606 37.6848C156.362 37.2197 155.973 36.7686 155.383 36.4671C154.764 36.1505 154.003 36.0416 153.175 36.1802C152.381 36.3131 151.56 36.6659 150.711 37.2173C149.856 37.7727 148.926 38.5604 147.914 39.6206C141.706 46.1254 132.049 51.0722 128.021 52.7191L127.87 52.7804L127.761 52.8775C127.546 53.0678 127.239 53.3083 126.87 53.5514C126.35 53.3806 125.764 53.3513 125.247 53.3844C124.428 53.4364 123.558 53.6523 122.795 53.9489C122.033 54.2448 121.303 54.6502 120.808 55.1262C120.317 55.597 119.96 56.2422 120.305 56.9212L120.306 56.9234C120.307 56.926 120.309 56.931 120.311 56.9389C120.315 56.9512 120.32 56.9687 120.325 56.9922C120.334 57.0397 120.341 57.1034 120.344 57.1853C120.349 57.3505 120.333 57.5653 120.294 57.8309C120.216 58.3621 120.051 59.0496 119.811 59.8643C119.332 61.4912 118.572 63.5712 117.68 65.8134C116.368 69.1121 114.781 72.7382 113.409 75.7449C108.391 74.064 102.71 73.1311 96.3509 73.1095H96.2397H96.1764H96.123C89.8109 73.1311 84.1682 74.0503 79.177 75.7076C77.817 72.722 76.2514 69.1425 74.9545 65.8831C74.0632 63.6409 73.3028 61.5609 72.8241 59.9341C72.5837 59.1194 72.4191 58.4318 72.3406 57.9006C72.3019 57.635 72.2866 57.4203 72.2916 57.255C72.2937 57.1731 72.3008 57.1094 72.3101 57.0619C72.3144 57.0384 72.3194 57.021 72.3237 57.0086L72.3249 57.0042C72.3253 57.003 72.3257 57.0019 72.326 57.0009L72.327 56.9983C72.3277 56.9967 72.3286 56.9945 72.3286 56.9945L72.3292 56.9932L72.3303 56.9909C72.6742 56.3119 72.3177 55.6668 71.8276 55.196C71.3321 54.7199 70.6022 54.3146 69.8407 54.0187C69.0775 53.722 68.2074 53.5062 67.3887 53.4542C66.8708 53.421 66.2842 53.4504 65.7642 53.6212C65.3962 53.3781 65.0882 53.1375 64.874 52.947L64.7644 52.8502L64.6139 52.7886C60.586 51.142 50.929 46.1951 44.7211 39.6903C43.7093 38.6301 42.7788 37.8424 41.9235 37.287C41.0747 36.7356 40.2543 36.3828 39.46 36.2499C38.632 36.1113 37.8715 36.2202 37.2517 36.5367C36.6619 36.8383 36.2732 37.2895 36.029 37.7546C35.5444 38.6777 35.5171 39.862 35.8905 40.8344C36.246 41.7621 37.1225 42.8196 38.7792 42.8728C38.9367 42.8779 39.3341 42.959 40.0303 43.206C40.6866 43.4392 41.5032 43.7805 42.4534 44.2154C44.351 45.0843 46.7195 46.2975 49.2991 47.6886C54.3819 50.4289 60.2338 53.8312 64.8189 56.5737C65.1673 57.2735 65.7702 58.1084 66.6718 59.0984C71.9705 64.9186 74.4355 72.0124 74.9976 74.8056L75.0221 74.9256L75.1033 75.0313C75.3803 75.3911 75.7406 75.9886 75.9101 76.58C75.9432 76.6955 75.967 76.8038 75.9825 76.9048C67.175 80.5991 60.6363 86.7563 56.2498 94.3303C46.9736 98.0469 40.2576 108.927 40.2576 121.771C40.2576 134.173 46.5194 144.744 55.3015 148.802C59.144 157.482 64.4531 165.089 69.9038 171.167C69.3453 175.088 69.3714 179.193 69.6117 183.138C69.8003 186.23 70.3373 189.128 71.7873 191.889C72.7527 193.728 74.1123 195.944 76.0388 196.916C76.313 197.054 76.3348 197.019 76.2367 196.839C75.6261 195.727 75.1115 194.445 74.8804 193.204C74.4356 190.812 74.5408 188.367 74.8242 185.962L74.8315 185.896L74.8389 185.828C74.8755 185.473 74.912 185.125 75.1252 185.667C75.1475 185.724 75.1758 185.831 75.2102 185.962L75.2103 185.962C75.3188 186.373 75.4878 187.012 75.7232 187.039C75.842 187.053 75.9248 186.9 75.9843 186.791C75.9868 186.787 75.9888 186.783 75.9908 186.779L75.9914 186.778C76.1156 186.552 76.2138 186.312 76.3114 186.072C76.3817 185.9 76.4525 185.727 76.5332 185.558C77.406 183.735 78.4122 181.979 79.66 180.417C82.3632 182.553 84.8836 184.188 87.0281 185.257C87.0281 185.257 92.5999 188.396 96.4833 188.333C100.185 188.273 105.446 185.257 105.446 185.257C107.641 184.163 110.231 182.475 113.008 180.263C114.313 181.863 115.357 183.675 116.259 185.558C116.339 185.727 116.41 185.899 116.481 186.072L116.481 186.072C116.578 186.312 116.676 186.552 116.8 186.778L116.807 186.791C116.867 186.9 116.95 187.053 117.068 187.039C117.305 187.012 117.474 186.372 117.581 185.962C117.616 185.831 117.644 185.725 117.666 185.668C117.88 185.125 117.916 185.474 117.953 185.827C117.958 185.873 117.963 185.918 117.968 185.962C118.251 188.367 118.357 190.812 117.911 193.204C117.681 194.445 117.166 195.727 116.555 196.84C116.457 197.019 116.479 197.054 116.753 196.916C118.68 195.944 120.039 193.728 121.005 191.889C122.455 189.128 122.992 186.23 123.18 183.138C123.421 179.182 123.447 175.066 122.883 171.135C122.87 171.044 122.856 170.953 122.841 170.863C128.125 164.917 133.255 157.538 137.021 149.143C146.208 145.362 152.841 134.537 152.841 121.773C152.841 108.563 145.737 97.4298 136.049 94.0316C131.689 86.6358 125.255 80.6177 116.637 76.9658C116.648 76.8291 116.677 76.6773 116.725 76.5102C116.895 75.9188 117.254 75.3213 117.532 74.9615L117.613 74.8558L117.638 74.7359C118.2 71.9426 120.665 64.8488 125.963 59.0287C126.864 58.0386 127.468 57.204 127.816 56.5039Z" fill="#042582"/>
<path fill-rule="evenodd" clip-rule="evenodd" d="M82.6213 121.771C82.6213 136.483 73.2233 146.921 63.2741 146.921C53.3255 146.921 43.9275 136.483 43.9275 121.771C43.9275 107.06 53.3255 96.6211 63.2741 96.6211C73.2233 96.6211 82.6213 107.06 82.6213 121.771Z" fill="white"/>
<path fill-rule="evenodd" clip-rule="evenodd" d="M149.171 121.772C149.171 136.484 139.773 146.922 129.824 146.922C119.876 146.922 110.477 136.484 110.477 121.772C110.477 107.06 119.876 96.6221 129.824 96.6221C139.773 96.6221 149.171 107.06 149.171 121.772Z" fill="white"/>
</svg>
