<svg width="668" height="306" viewBox="0 0 668 306" fill="none" xmlns="http://www.w3.org/2000/svg">
<g filter="url(#filter0_d_2329_148)">
<mask id="mask0_2329_148" style="mask-type:luminance" maskUnits="userSpaceOnUse" x="20" y="16" width="628" height="266">
<path d="M624 16H44C30.7452 16 20 26.7452 20 40V258C20 271.255 30.7452 282 44 282H624C637.255 282 648 271.255 648 258V40C648 26.7452 637.255 16 624 16Z" fill="white"/>
</mask>
<g mask="url(#mask0_2329_148)">
<path d="M624 16H44C30.7452 16 20 26.7452 20 40V258C20 271.255 30.7452 282 44 282H624C637.255 282 648 271.255 648 258V40C648 26.7452 637.255 16 624 16Z" fill="black"/>
<path d="M-5.5 144.117H330.5" stroke="#9FA9C0" stroke-width="2" stroke-linecap="round" stroke-dasharray="0.1 9.1"/>
<path d="M669.5 144.117H333.5" stroke="#9FA9C0" stroke-width="2" stroke-linecap="round" stroke-dasharray="0.1 9.1"/>
<path d="M334 148.617C455.503 148.617 554 50.3437 554 -70.8828C554 -192.109 455.503 -290.383 334 -290.383C212.497 -290.383 114 -192.109 114 -70.8828C114 50.3437 212.497 148.617 334 148.617Z" stroke="#9FA9C0" stroke-width="2" stroke-linecap="round" stroke-dasharray="0.1 9.1"/>
<path d="M334 578.617C455.503 578.617 554 480.344 554 359.117C554 237.891 455.503 139.617 334 139.617C212.497 139.617 114 237.891 114 359.117C114 480.344 212.497 578.617 334 578.617Z" stroke="#9FA9C0" stroke-width="2" stroke-linecap="round" stroke-dasharray="0.1 9.1"/>
<path d="M108.5 143.617C108.5 130.086 97.531 119.117 84 119.117C70.469 119.117 59.5 130.086 59.5 143.617C59.5 157.148 70.469 168.117 84 168.117C97.531 168.117 108.5 157.148 108.5 143.617Z" fill="white" stroke="#040011"/>
<mask id="mask1_2329_148" style="mask-type:luminance" maskUnits="userSpaceOnUse" x="68" y="127" width="32" height="33">
<path d="M100 127.234H68V159.234H100V127.234Z" fill="white"/>
</mask>
<g mask="url(#mask1_2329_148)">
<path d="M75.24 156.33L68.279 144.273C67.907 143.629 67.907 142.835 68.279 142.191L75.24 130.135C75.6115 129.491 76.2975 129.095 77.04 129.094H90.9685C91.7085 129.097 92.391 129.494 92.761 130.135L99.721 142.191C100.093 142.835 100.093 143.629 99.721 144.273L92.76 156.33C92.3885 156.974 91.7025 157.37 90.96 157.371H77.035C76.2935 157.369 75.61 156.972 75.2385 156.33H75.24Z" fill="#4386FA"/>
<path opacity="0.1" d="M88.3476 139.352C88.3476 139.352 90.2826 143.993 87.6446 146.624C85.0066 149.255 80.2031 147.571 80.2031 147.571L89.9741 157.369H90.9661C91.7091 157.368 92.3951 156.971 92.7661 156.328L97.3741 148.349L88.3476 139.352Z" fill="black"/>
<path d="M90.6364 148.845L88.5029 146.707C88.4796 146.683 88.453 146.663 88.4239 146.647C89.3314 145.478 89.7591 144.007 89.6198 142.533C89.4805 141.06 88.7848 139.695 87.6744 138.717C86.5639 137.739 85.1223 137.221 83.6432 137.269C82.1641 137.316 80.7589 137.926 79.7137 138.974C78.6686 140.022 78.0622 141.428 78.0182 142.908C77.9741 144.387 78.4957 145.827 79.4766 146.935C80.4575 148.043 81.824 148.736 83.2976 148.871C84.7713 149.007 86.2412 148.575 87.4079 147.665C87.4231 147.693 87.4421 147.718 87.4644 147.74L89.6029 149.879C89.6657 149.941 89.7508 149.977 89.8396 149.977C89.9284 149.977 90.0135 149.941 90.0764 149.879L90.6364 149.319C90.6991 149.256 90.7343 149.171 90.7343 149.082C90.7343 148.993 90.6991 148.908 90.6364 148.845ZM83.8229 147.462C82.9575 147.462 82.1116 147.206 81.392 146.725C80.6725 146.244 80.1117 145.561 79.7805 144.762C79.4493 143.962 79.3626 143.082 79.5314 142.234C79.7002 141.385 80.1169 140.605 80.7288 139.994C81.3406 139.382 82.1202 138.965 82.969 138.796C83.8177 138.627 84.6974 138.714 85.4968 139.045C86.2963 139.376 86.9796 139.937 87.4602 140.657C87.9409 141.376 88.1975 142.222 88.1974 143.088C88.1972 144.248 87.7363 145.36 86.9159 146.181C86.0956 147.001 84.983 147.462 83.8229 147.462ZM81.0264 142.854V144.662C81.3049 145.154 81.7079 145.564 82.1954 145.85V142.843L81.0264 142.854ZM83.2139 141.355V146.241C83.6003 146.312 83.9964 146.312 84.3829 146.241V141.355H83.2139ZM86.5959 144.658V143.587H85.4279V145.837C85.9147 145.552 86.3178 145.144 86.5969 144.653L86.5959 144.658Z" fill="white"/>
</g>
<path d="M190.5 217.617C190.5 204.086 179.531 193.117 166 193.117C152.469 193.117 141.5 204.086 141.5 217.617C141.5 231.148 152.469 242.117 166 242.117C179.531 242.117 190.5 231.148 190.5 217.617Z" fill="white" stroke="#040011"/>
<path fill-rule="evenodd" clip-rule="evenodd" d="M179.686 225.821C177.918 225.774 176.546 225.946 175.397 226.403C175.066 226.529 174.535 226.529 174.491 226.923C174.668 227.088 174.689 227.359 174.844 227.588C175.109 228.004 175.574 228.564 175.994 228.855L177.409 229.811C178.271 230.31 179.243 230.601 180.083 231.099C180.57 231.391 181.056 231.765 181.542 232.077C181.79 232.243 181.94 232.514 182.25 232.617V232.554C182.095 232.368 182.051 232.098 181.897 231.889L181.233 231.287C180.592 230.476 179.796 229.769 178.934 229.188C178.226 228.731 176.679 228.107 176.392 227.339L176.348 227.292C176.834 227.246 177.409 227.084 177.873 226.959C178.625 226.773 179.31 226.814 180.083 226.627L181.145 226.336V226.15C180.747 225.776 180.46 225.277 180.04 224.924C178.913 224.009 177.674 223.116 176.392 222.368C175.707 221.952 174.822 221.681 174.093 221.329C173.827 221.204 173.385 221.142 173.231 220.934C172.832 220.477 172.611 219.874 172.324 219.333L170.511 215.718C170.113 214.907 169.87 214.097 169.384 213.349C167.107 209.816 164.63 207.676 160.828 205.576C160.01 205.14 159.038 204.952 158.004 204.724L156.346 204.64C155.991 204.495 155.638 204.1 155.329 203.912C154.068 203.164 150.819 201.544 149.89 203.68C149.292 205.03 150.774 206.36 151.277 207.046C151.653 207.524 152.139 208.064 152.405 208.605C152.554 208.958 152.603 209.332 152.758 209.706C153.112 210.621 153.444 211.639 153.908 212.492C154.156 212.928 154.416 213.386 154.726 213.78C154.902 214.013 155.212 214.113 155.278 214.487C154.968 214.903 154.947 215.526 154.77 216.046C153.974 218.394 154.284 221.304 155.411 223.033C155.765 223.552 156.6 224.696 157.733 224.259C158.728 223.885 158.506 222.7 158.793 221.661C158.86 221.412 158.815 221.245 158.948 221.079V221.125L159.854 222.85C160.54 223.868 161.734 224.928 162.728 225.635C163.258 226.009 163.679 226.654 164.341 226.882V226.819H164.298C164.165 226.633 163.966 226.549 163.789 226.404C163.391 226.03 162.949 225.573 162.639 225.157C161.711 223.994 160.894 222.705 160.164 221.375C159.81 220.731 159.5 220.024 159.214 219.38C159.08 219.13 159.08 218.756 158.859 218.632C158.527 219.088 158.042 219.484 157.798 220.045C157.377 220.939 157.334 222.04 157.179 223.183C157.09 223.204 157.13 223.183 157.09 223.23C156.383 223.064 156.14 222.377 155.875 221.796C155.212 220.32 155.101 217.952 155.675 216.247C155.83 215.811 156.494 214.439 156.229 214.024C156.095 213.629 155.654 213.4 155.41 213.088C155.123 212.693 154.814 212.195 154.615 211.759C154.085 210.594 153.82 209.306 153.244 208.142C152.978 207.602 152.515 207.041 152.139 206.542C151.718 205.981 151.255 205.586 150.923 204.921C150.813 204.688 150.658 204.319 150.835 204.069C150.879 203.903 150.968 203.836 151.144 203.799C151.431 203.566 152.25 203.861 152.537 203.985C153.354 204.297 154.04 204.588 154.725 205.024C155.035 205.232 155.367 205.627 155.765 205.731H156.229C156.937 205.876 157.732 205.777 158.395 205.964C159.566 206.318 160.627 206.837 161.579 207.398C164.474 209.123 166.863 211.575 168.476 214.506C168.741 214.984 168.851 215.42 169.095 215.919C169.56 216.938 170.135 217.977 170.598 218.975C171.063 219.952 171.505 220.95 172.168 221.76C172.5 222.197 173.826 222.425 174.422 222.654C174.865 222.84 175.549 223.008 175.948 223.236C176.7 223.672 177.451 224.171 178.158 224.649C178.512 224.898 179.617 225.417 179.683 225.832L179.686 225.821ZM157.141 207.762C156.836 207.759 156.531 207.794 156.235 207.866V207.912H156.279C156.456 208.245 156.765 208.473 156.986 208.764L157.495 209.762L157.539 209.716C157.849 209.508 158.004 209.175 158.004 208.677C157.871 208.532 157.849 208.386 157.739 208.24C157.606 208.033 157.318 207.927 157.141 207.762Z" fill="#00678C"/>
<path d="M527.5 217.617C527.5 204.086 516.531 193.117 503 193.117C489.469 193.117 478.5 204.086 478.5 217.617C478.5 231.148 489.469 242.117 503 242.117C516.531 242.117 527.5 231.148 527.5 217.617Z" fill="white" stroke="#040011"/>
<path d="M510.488 222.992L506.158 220.3C505.55 219.923 504.772 220.147 504.42 220.802C504.284 221.06 504.23 221.343 504.256 221.619V226.879C504.256 227.631 504.824 228.242 505.524 228.242C506.223 228.242 506.79 227.631 506.79 226.879V223.854L509.216 225.362C509.824 225.741 510.604 225.515 510.954 224.86C511.306 224.205 511.098 223.368 510.488 222.992Z" fill="#29B5E8"/>
<path d="M499.25 217.622C499.257 217.171 499.017 216.752 498.623 216.526L494.256 214.032C494.066 213.924 493.849 213.867 493.631 213.867C493.183 213.867 492.766 214.104 492.543 214.487C492.197 215.079 492.404 215.838 493.003 216.18L495.52 217.616L493.003 219.054C492.712 219.219 492.504 219.486 492.419 219.806C492.331 220.126 492.376 220.461 492.543 220.747C492.766 221.13 493.183 221.367 493.629 221.367C493.849 221.367 494.066 221.31 494.256 221.202L498.623 218.708C499.014 218.484 499.254 218.068 499.25 217.622Z" fill="#29B5E8"/>
<path d="M495.51 212.252L499.822 214.933C500.325 215.248 500.946 215.145 501.342 214.728C501.594 214.479 501.75 214.123 501.75 213.727V208.352C501.75 207.601 501.185 206.992 500.489 206.992C499.791 206.992 499.226 207.601 499.226 208.352V211.412L496.776 209.889C496.171 209.511 495.396 209.735 495.045 210.387C494.694 211.04 494.904 211.874 495.51 212.252Z" fill="#29B5E8"/>
<path d="M505.5 217.85C505.5 217.951 505.441 218.092 505.369 218.166L503.549 219.986C503.477 220.058 503.334 220.117 503.233 220.117H502.769C502.668 220.117 502.525 220.058 502.453 219.986L500.631 218.166C500.559 218.092 500.5 217.951 500.5 217.85V217.386C500.5 217.283 500.559 217.142 500.631 217.07L502.453 215.248C502.525 215.176 502.668 215.117 502.769 215.117H503.233C503.334 215.117 503.477 215.176 503.549 215.248L505.369 217.07C505.441 217.142 505.5 217.283 505.5 217.386V217.85ZM503.876 217.627V217.607C503.876 217.533 503.833 217.429 503.78 217.375L503.242 216.839C503.19 216.784 503.086 216.741 503.01 216.741H502.99C502.916 216.741 502.812 216.784 502.758 216.839L502.222 217.375C502.169 217.427 502.126 217.531 502.126 217.607V217.627C502.126 217.703 502.169 217.807 502.222 217.859L502.758 218.397C502.812 218.45 502.916 218.493 502.99 218.493H503.01C503.086 218.493 503.19 218.45 503.242 218.397L503.78 217.859C503.833 217.807 503.876 217.703 503.876 217.627Z" fill="#29B5E8"/>
<path d="M506.158 214.933L510.488 212.252C511.096 211.876 511.306 211.04 510.954 210.387C510.602 209.735 509.824 209.511 509.216 209.889L506.79 211.392V208.352C506.79 207.601 506.223 206.992 505.524 206.992C504.824 206.992 504.256 207.601 504.256 208.352V213.62C504.232 213.893 504.282 214.178 504.42 214.435C504.772 215.088 505.55 215.311 506.158 214.933Z" fill="#29B5E8"/>
<path d="M500.687 220.141C500.401 220.082 500.094 220.131 499.822 220.3L495.51 222.992C494.904 223.368 494.694 224.205 495.045 224.86C495.396 225.517 496.171 225.741 496.776 225.362L499.226 223.835V226.879C499.226 227.631 499.791 228.242 500.489 228.242C501.185 228.242 501.75 227.631 501.75 226.879V221.488C501.75 220.808 501.289 220.244 500.687 220.141Z" fill="#29B5E8"/>
<path d="M513.454 214.498C513.104 213.894 512.324 213.688 511.716 214.036L507.386 216.51C506.971 216.747 506.743 217.181 506.75 217.622C506.746 218.062 506.975 218.49 507.386 218.724L511.716 221.199C512.324 221.545 513.102 221.339 513.454 220.737C513.806 220.135 513.596 219.366 512.988 219.017L510.536 217.617L512.988 216.216C513.598 215.869 513.806 215.1 513.454 214.498Z" fill="#29B5E8"/>
<path d="M190.5 66.6172C190.5 53.0862 179.531 42.1172 166 42.1172C152.469 42.1172 141.5 53.0862 141.5 66.6172C141.5 80.1482 152.469 91.1172 166 91.1172C179.531 91.1172 190.5 80.1482 190.5 66.6172Z" fill="white" stroke="#040011"/>
<path d="M172.791 62.683C171.143 55.413 167.708 53.4776 166.832 52.1095C166.471 51.5068 166.15 50.8804 165.874 50.2344C165.828 50.8803 165.743 51.2871 165.194 51.7769C164.091 52.7597 159.41 56.5744 159.016 64.8348C158.649 72.5364 164.678 77.2855 165.475 77.7764C166.087 78.0778 166.833 77.7828 167.197 77.5062C170.103 75.5116 174.074 70.1942 172.794 62.683" fill="#10AA50"/>
<path d="M166.122 73.6797C165.971 75.586 165.862 76.6937 165.477 77.783C165.477 77.783 165.729 79.5978 165.907 81.5203H166.536C166.686 80.1665 166.915 78.8226 167.221 77.4956C166.408 77.0952 166.154 75.3525 166.122 73.6797Z" fill="#B8C4C2"/>
<path d="M167.219 77.4925C166.396 77.1125 166.158 75.3332 166.122 73.6756C166.325 70.9412 166.384 68.1979 166.299 65.4572C166.256 64.0192 166.32 52.1378 165.945 50.3984C166.201 50.9875 166.497 51.5589 166.829 52.1088C167.705 53.4779 171.141 55.4133 172.788 62.6833C174.071 70.1816 170.122 75.485 167.219 77.4925Z" fill="#12924F"/>
<path d="M527.5 66.6172C527.5 53.0862 516.531 42.1172 503 42.1172C489.469 42.1172 478.5 53.0862 478.5 66.6172C478.5 80.1482 489.469 91.1172 503 91.1172C516.531 91.1172 527.5 80.1482 527.5 66.6172Z" fill="white" stroke="#040011"/>
<mask id="mask2_2329_148" style="mask-type:luminance" maskUnits="userSpaceOnUse" x="489" y="54" width="27" height="28">
<path d="M516 54.2344H489V81.2344H516V54.2344Z" fill="white"/>
</mask>
<g mask="url(#mask2_2329_148)">
<path d="M509.018 73.8892C509.19 72.458 509.138 72.2492 510.204 72.4801L510.475 72.5044C511.294 72.5413 512.366 72.3725 513.006 72.0804C514.361 71.4518 515.165 70.4013 513.829 70.6777C510.781 71.3063 510.559 70.2737 510.559 70.2737C513.779 65.496 515.126 59.4315 513.963 57.9476C510.794 53.8976 505.309 55.8129 505.217 55.8635L505.188 55.8688C504.586 55.7422 503.922 55.6684 503.152 55.6579C501.773 55.6368 500.726 56.0196 499.931 56.6218C499.931 56.6218 490.147 52.5908 490.601 61.6917C490.698 63.6281 493.375 76.3519 496.571 72.5023C497.74 71.0953 498.869 69.9067 498.869 69.9067C499.428 70.279 500.1 70.4688 500.803 70.4003L500.858 70.3539C500.842 70.5362 500.849 70.7198 500.88 70.9002C500.058 71.8199 500.3 71.9813 498.655 72.3198C496.991 72.6626 497.969 73.2733 498.606 73.4336C499.38 73.6276 501.171 73.9018 502.382 72.208L502.334 72.401C502.656 72.6594 502.634 74.2573 502.682 75.3984C502.729 76.5396 502.804 77.6059 503.037 78.2334C503.27 78.861 503.543 80.4799 505.705 80.0264C507.512 79.6393 508.894 79.0814 509.02 73.8987" fill="black"/>
<path d="M509.018 73.8892C509.19 72.458 509.138 72.2491 510.204 72.4801L510.475 72.5044C511.294 72.5413 512.366 72.3725 513.006 72.0804C514.361 71.4518 515.165 70.4013 513.829 70.6777C510.781 71.3063 510.559 70.2737 510.559 70.2737C513.779 65.496 515.126 59.4315 513.963 57.9476C510.794 53.8976 505.309 55.8129 505.217 55.8635L505.188 55.8688C504.586 55.7422 503.922 55.6684 503.152 55.6579C501.773 55.6368 500.726 56.0196 499.931 56.6218C499.931 56.6218 490.147 52.5908 490.601 61.6917C490.698 63.6281 493.375 76.3519 496.571 72.5023C497.74 71.0953 498.869 69.9067 498.869 69.9067C499.428 70.279 500.1 70.4688 500.803 70.4003L500.858 70.3539C500.842 70.5362 500.849 70.7198 500.88 70.9002C500.058 71.8199 500.3 71.9813 498.655 72.3198C496.991 72.6626 497.969 73.2733 498.606 73.4336C499.38 73.6276 501.171 73.9018 502.382 72.208L502.334 72.401C502.656 72.6594 502.634 74.2573 502.682 75.3984C502.729 76.5396 502.804 77.6059 503.037 78.2334C503.27 78.861 503.543 80.4799 505.705 80.0264C507.512 79.6393 508.894 79.0814 509.02 73.8987" stroke="black" stroke-width="2.26652"/>
<path d="M513.819 70.6851C510.771 71.3137 510.549 70.2812 510.549 70.2812C513.769 65.5034 515.116 59.439 513.954 57.955C510.786 53.905 505.3 55.8214 505.208 55.871L505.179 55.8763C504.509 55.7418 503.828 55.6708 503.144 55.6643C501.765 55.6432 500.719 56.026 499.923 56.6282C499.923 56.6282 490.138 52.5972 490.594 61.6981C490.691 63.6345 493.367 76.3583 496.563 72.5087C497.74 71.0933 498.869 69.9046 498.869 69.9046C499.428 70.277 500.099 70.4668 500.803 70.3982L500.858 70.3518C500.842 70.5341 500.849 70.7178 500.88 70.8982C500.057 71.8179 500.3 71.9792 498.655 72.3178C496.99 72.6605 497.969 73.2712 498.606 73.4315C499.38 73.6256 501.171 73.8998 502.382 72.206L502.333 72.399C502.656 72.6574 502.882 74.0791 502.844 75.3679C502.806 76.6568 502.78 77.5406 503.034 78.2325C503.287 78.9243 503.54 80.4789 505.702 80.0254C507.509 79.6384 508.444 78.6332 508.576 76.9605C508.669 75.7708 508.878 75.9459 508.892 74.8828L509.061 74.3786C509.254 72.765 509.093 72.245 510.205 72.4876L510.477 72.5118C511.296 72.5487 512.369 72.38 512.997 72.0878C514.353 71.4593 515.155 70.4088 513.819 70.6851Z" fill="#336791"/>
<path d="M502.506 71.5993C502.422 74.601 502.527 77.6237 502.821 78.3493C503.114 79.075 503.744 80.5114 505.907 80.0495C507.713 79.6624 508.372 78.9125 508.656 77.2577L509.324 71.9664M499.914 56.5521C499.914 56.5521 490.122 52.5485 490.578 61.6494C490.675 63.5858 493.352 76.3096 496.547 72.46C497.714 71.0541 498.769 69.954 498.769 69.954M505.202 55.8212C504.865 55.9267 510.649 53.7066 513.937 57.9074C515.097 59.3913 513.753 65.4558 510.533 70.2335" stroke="white" stroke-width="0.755156" stroke-linecap="round" stroke-linejoin="round"/>
<path d="M510.538 70.2348C510.538 70.2348 510.749 71.2684 513.807 70.6377C515.143 70.3613 514.339 71.4118 512.984 72.0404C511.873 72.5572 509.38 72.689 509.338 71.9771C509.233 70.1367 510.65 70.6957 510.548 70.2348C510.455 69.8192 509.82 69.4121 509.403 68.3954C509.037 67.5095 504.382 60.7067 510.694 61.7161C510.926 61.6686 509.048 55.7044 503.142 55.6179C497.236 55.5314 497.423 62.8794 497.423 62.8794" stroke="white" stroke-width="0.755156" stroke-linecap="round" stroke-linejoin="bevel"/>
<path d="M500.856 70.8604C500.034 71.7801 500.276 71.9414 498.631 72.28C496.967 72.6227 497.945 73.2334 498.582 73.3937C499.356 73.5878 501.147 73.862 502.358 72.1671C502.727 71.6503 502.356 70.8277 501.85 70.6188C501.605 70.5176 501.278 70.391 500.858 70.8614L500.856 70.8604Z" stroke="white" stroke-width="0.755156" stroke-linejoin="round"/>
<path d="M500.801 70.8478C500.716 70.3068 500.978 69.6645 501.257 68.9114C501.677 67.7829 502.645 66.6544 501.871 63.0716C501.294 60.4033 497.42 62.5158 497.42 62.8776C497.42 63.2393 497.595 64.7127 497.357 66.4266C497.044 68.6646 498.781 70.5567 500.78 70.3637" stroke="white" stroke-width="0.755156" stroke-linecap="round" stroke-linejoin="round"/>
<path d="M499.884 62.8214C499.866 62.9448 500.11 63.2749 500.428 63.3192C500.745 63.3635 501.016 63.1061 501.034 62.9817C501.052 62.8572 500.808 62.7222 500.49 62.6779C500.173 62.6336 499.9 62.699 499.884 62.8214Z" fill="white" stroke="white" stroke-width="0.25207"/>
<path d="M509.55 62.5714C509.567 62.6948 509.323 63.0249 509.006 63.0692C508.688 63.1135 508.415 62.8561 508.399 62.7316C508.383 62.6072 508.626 62.4722 508.943 62.4279C509.261 62.3836 509.534 62.4491 509.55 62.5714Z" fill="white" stroke="white" stroke-width="0.125508"/>
<path d="M510.678 61.7188C510.731 62.6891 510.469 63.3482 510.436 64.3808C510.387 65.8805 511.151 67.5976 510 69.3167" stroke="white" stroke-width="0.755156" stroke-linecap="round" stroke-linejoin="round"/>
</g>
<path d="M608.5 143.617C608.5 130.086 597.531 119.117 584 119.117C570.469 119.117 559.5 130.086 559.5 143.617C559.5 157.148 570.469 168.117 584 168.117C597.531 168.117 608.5 157.148 608.5 143.617Z" fill="white" stroke="#040011"/>
<path d="M598.86 133.334C598.778 133.265 598.675 133.23 598.569 133.235C598.28 133.235 597.906 133.436 597.704 133.544L597.624 133.586C597.286 133.753 596.918 133.848 596.543 133.864C596.159 133.877 595.827 133.9 595.396 133.946C592.839 134.215 591.698 136.223 590.6 138.164C590.001 139.221 589.384 140.318 588.537 141.156C588.361 141.33 588.175 141.492 587.979 141.641C587.103 142.308 586.002 142.785 585.146 143.123C584.322 143.445 583.422 143.736 582.552 144.016C581.755 144.273 581.004 144.516 580.312 144.779C580 144.898 579.735 144.989 579.501 145.068C578.871 145.278 578.417 145.438 577.753 145.907C577.494 146.088 577.235 146.284 577.059 146.43C576.532 146.861 576.065 147.364 575.673 147.926C575.335 148.443 574.945 148.923 574.509 149.357C574.369 149.497 574.12 149.566 573.748 149.566C573.312 149.566 572.783 149.474 572.224 149.377C571.647 149.272 571.051 149.173 570.539 149.173C570.124 149.173 569.806 149.242 569.569 149.382C569.569 149.382 569.169 149.621 569 149.93L569.166 150.007C569.423 150.149 569.661 150.325 569.873 150.53C570.096 150.741 570.343 150.921 570.61 151.067C570.695 151.099 570.772 151.149 570.837 151.215C570.767 151.319 570.665 151.455 570.558 151.599C569.968 152.39 569.623 152.89 569.82 153.163C569.915 153.213 570.021 153.237 570.127 153.234C571.414 153.234 572.105 152.891 572.98 152.457C573.233 152.332 573.491 152.203 573.798 152.07C574.309 151.842 574.86 151.48 575.444 151.096C576.208 150.586 577.007 150.062 577.782 149.81C578.419 149.611 579.083 149.515 579.749 149.527C580.567 149.527 581.428 149.639 582.259 149.748C582.877 149.829 583.519 149.913 584.148 149.952C584.392 149.967 584.618 149.974 584.838 149.974C585.132 149.975 585.426 149.959 585.719 149.927L585.789 149.902C586.23 149.624 586.437 149.028 586.637 148.452C586.766 148.081 586.875 147.748 587.046 147.536C587.057 147.526 587.067 147.516 587.079 147.508C587.087 147.503 587.097 147.501 587.106 147.503C587.115 147.504 587.123 147.509 587.129 147.516C587.129 147.516 587.129 147.521 587.129 147.533C587.027 149.787 586.141 151.218 585.245 152.49L584.647 153.147C584.647 153.147 585.485 153.147 585.961 152.958C587.7 152.426 589.012 151.252 589.968 149.381C590.203 148.901 590.414 148.408 590.599 147.905C590.615 147.863 590.765 147.785 590.751 148.002C590.746 148.066 590.742 148.137 590.737 148.212C590.737 148.256 590.737 148.301 590.729 148.346C590.704 148.66 590.631 149.324 590.631 149.324L591.168 149.03C592.463 148.192 593.461 146.501 594.218 143.87C594.533 142.774 594.765 141.685 594.968 140.726C595.211 139.574 595.421 138.586 595.662 138.202C596.039 137.601 596.615 137.194 597.172 136.799C597.248 136.746 597.325 136.694 597.399 136.638C598.1 136.134 598.796 135.552 598.95 134.468V134.444C599.061 133.635 598.967 133.428 598.86 133.334Z" fill="#003545"/>
</g>
</g>
<path d="M360.203 205.775C360.203 208.488 360.078 210.453 359.922 210.453C359.735 210.453 359.112 210.141 358.488 209.798C357.085 208.956 353.904 208.675 352.252 209.205C350.599 209.767 348.541 211.731 347.762 213.571C346.265 217.063 346.359 222.894 347.949 226.043C349.258 228.569 350.88 229.598 353.811 229.723C356.118 229.847 356.524 229.723 359.985 227.976C360.11 227.914 360.203 228.164 360.203 228.507C360.203 229.099 360.39 229.161 362.23 229.161H364.257V215.13V201.098H362.23H360.203V205.775ZM358.769 213.695L360.203 214.537V219.152C360.203 224.328 360.234 224.235 357.709 225.388C355.183 226.542 353.094 226.043 351.909 224.048C351.504 223.33 351.316 222.27 351.223 220.025C351.098 217.25 351.161 216.876 351.909 215.317C353.281 212.511 355.744 211.918 358.769 213.695Z" fill="white"/>
<path d="M370.188 215.138V229.17H372.058C373.742 229.17 373.929 229.108 373.929 228.515C373.929 228.172 374.023 227.923 374.179 227.985C377.546 229.731 380.29 230.199 382.535 229.482C384.5 228.827 386.277 226.769 387.057 224.181C387.618 222.279 387.711 221.406 387.587 218.288C387.493 215.076 387.368 214.421 386.589 212.862C385.186 209.993 382.909 208.715 379.542 208.964C378.388 209.058 377.141 209.401 376.112 209.931C375.239 210.399 374.428 210.773 374.366 210.773C374.303 210.773 374.241 208.59 374.241 205.94V201.107H372.214H370.188V215.138ZM380.945 213.018C381.382 213.205 382.068 213.891 382.442 214.484C383.034 215.481 383.128 216.043 383.128 219.192C383.128 223.245 382.754 224.368 381.007 225.428C379.635 226.27 378.076 226.208 376.081 225.179L374.397 224.337L374.303 219.597L374.21 214.889L375.145 214.234C377.266 212.706 379.355 212.27 380.945 213.018Z" fill="white"/>
<path d="M286.34 209.421C284.407 210.107 282.474 212.165 281.757 214.223C281.289 215.501 281.164 216.78 281.164 219.648C281.164 222.891 281.258 223.608 281.881 224.949C282.754 226.851 283.877 228.067 285.529 228.94C287.244 229.845 291.859 230.063 294.011 229.346C295.632 228.816 297.846 227.194 297.846 226.54C297.846 226.321 297.222 225.698 296.443 225.168L295.009 224.17L293.886 225.012C292.982 225.698 292.389 225.885 290.706 225.978C287.556 226.134 285.997 224.856 285.498 221.706L285.311 220.428L291.797 220.366L298.314 220.272L298.22 217.778C298.064 213.506 296.911 211.105 294.291 209.764C292.576 208.86 288.336 208.673 286.34 209.421ZM292.14 212.944C293.294 213.63 293.637 214.223 293.948 215.844L294.167 216.998H289.895H285.592L285.779 215.938C286.278 212.913 289.552 211.354 292.14 212.944Z" fill="white"/>
<path d="M311.161 209.372C310.507 209.621 309.384 210.245 308.667 210.775L307.357 211.742L307.264 210.619L307.17 209.528H304.987H302.836V219.35V229.172H305.019H307.201V222.374L307.232 215.608L308.636 214.579C310.631 213.082 312.596 212.49 313.718 212.958C315.184 213.55 315.308 214.267 315.308 222V229.172H317.522H319.705L319.611 220.971C319.518 213.394 319.456 212.708 318.863 211.554C317.616 209.154 314.279 208.218 311.161 209.372Z" fill="white"/>
<path d="M328.836 209.677C325.936 211.111 324.627 213.824 324.408 218.75C324.096 225.985 326.653 229.757 331.861 229.789C333.544 229.789 334.262 229.602 335.758 228.853C336.756 228.354 337.629 227.918 337.691 227.918C337.723 227.918 337.754 229.882 337.754 232.283V236.68L339.874 236.586L341.963 236.493V223.085V209.677L340.155 209.583C338.533 209.49 338.315 209.552 338.159 210.113C338.066 210.487 337.972 210.768 337.91 210.768C337.879 210.768 337.161 210.394 336.351 209.926C335.259 209.334 334.293 209.084 332.64 208.991C330.707 208.866 330.208 208.96 328.836 209.677ZM335.914 213.481L337.598 214.354L337.691 219.093L337.785 223.833L336.756 224.581C334.417 226.296 332.048 226.515 330.489 225.111C329.241 224.02 328.711 222.368 328.711 219.436C328.711 216.942 329.148 215.414 330.177 214.167C331.673 212.39 333.357 212.202 335.914 213.481Z" fill="white"/>
<path d="M360.203 205.775C360.203 208.488 360.078 210.453 359.922 210.453C359.735 210.453 359.112 210.141 358.488 209.798C357.085 208.956 353.904 208.675 352.252 209.205C350.599 209.767 348.541 211.731 347.762 213.571C346.265 217.063 346.359 222.894 347.949 226.043C349.258 228.569 350.88 229.598 353.811 229.723C356.118 229.847 356.524 229.723 359.985 227.976C360.11 227.914 360.203 228.164 360.203 228.507C360.203 229.099 360.39 229.161 362.23 229.161H364.257V215.13V201.098H362.23H360.203V205.775ZM358.769 213.695L360.203 214.537V219.152C360.203 224.328 360.234 224.235 357.709 225.388C355.183 226.542 353.094 226.043 351.909 224.048C351.504 223.33 351.316 222.27 351.223 220.025C351.098 217.25 351.161 216.876 351.909 215.317C353.281 212.511 355.744 211.918 358.769 213.695Z" fill="white"/>
<path d="M370.422 215.138V229.17H372.293C373.977 229.17 374.164 229.108 374.164 228.515C374.164 228.172 374.257 227.923 374.413 227.985C377.781 229.731 380.525 230.199 382.77 229.482C384.734 228.827 386.511 226.769 387.291 224.181C387.852 222.279 387.946 221.406 387.821 218.288C387.727 215.076 387.603 214.421 386.823 212.862C385.42 209.993 383.144 208.715 379.776 208.964C378.623 209.058 377.375 209.401 376.346 209.931C375.473 210.399 374.663 210.773 374.6 210.773C374.538 210.773 374.475 208.59 374.475 205.94V201.107H372.449H370.422V215.138ZM381.179 213.018C381.616 213.205 382.302 213.891 382.676 214.484C383.269 215.481 383.362 216.043 383.362 219.192C383.362 223.245 382.988 224.368 381.242 225.428C379.87 226.27 378.311 226.208 376.315 225.179L374.631 224.337L374.538 219.597L374.444 214.889L375.38 214.234C377.5 212.706 379.589 212.27 381.179 213.018Z" fill="white"/>
<path d="M286.34 209.421C284.407 210.107 282.474 212.165 281.757 214.223C281.289 215.501 281.164 216.78 281.164 219.648C281.164 222.891 281.258 223.608 281.881 224.949C282.754 226.851 283.877 228.067 285.529 228.94C287.244 229.845 291.859 230.063 294.011 229.346C295.632 228.816 297.846 227.194 297.846 226.54C297.846 226.321 297.222 225.698 296.443 225.168L295.009 224.17L293.886 225.012C292.982 225.698 292.389 225.885 290.706 225.978C287.556 226.134 285.997 224.856 285.498 221.706L285.311 220.428L291.797 220.366L298.314 220.272L298.22 217.778C298.064 213.506 296.911 211.105 294.291 209.764C292.576 208.86 288.336 208.673 286.34 209.421ZM292.14 212.944C293.294 213.63 293.637 214.223 293.948 215.844L294.167 216.998H289.895H285.592L285.779 215.938C286.278 212.913 289.552 211.354 292.14 212.944Z" fill="white"/>
<path d="M311.161 209.372C310.507 209.621 309.384 210.245 308.667 210.775L307.357 211.742L307.264 210.619L307.17 209.528H304.987H302.836V219.35V229.172H305.019H307.201V222.374L307.232 215.608L308.636 214.579C310.631 213.082 312.596 212.49 313.718 212.958C315.184 213.55 315.308 214.267 315.308 222V229.172H317.522H319.705L319.611 220.971C319.518 213.394 319.456 212.708 318.863 211.554C317.616 209.154 314.279 208.218 311.161 209.372Z" fill="white"/>
<path d="M328.836 209.677C325.936 211.111 324.627 213.824 324.408 218.75C324.096 225.985 326.653 229.757 331.861 229.789C333.544 229.789 334.262 229.602 335.758 228.853C336.756 228.354 337.629 227.918 337.691 227.918C337.723 227.918 337.754 229.882 337.754 232.283V236.68L339.874 236.586L341.963 236.493V223.085V209.677L340.155 209.583C338.533 209.49 338.315 209.552 338.159 210.113C338.066 210.487 337.972 210.768 337.91 210.768C337.879 210.768 337.161 210.394 336.351 209.926C335.259 209.334 334.293 209.084 332.64 208.991C330.707 208.866 330.208 208.96 328.836 209.677ZM335.914 213.481L337.598 214.354L337.691 219.093L337.785 223.833L336.756 224.581C334.417 226.296 332.048 226.515 330.489 225.111C329.241 224.02 328.711 222.368 328.711 219.436C328.711 216.942 329.148 215.414 330.177 214.167C331.673 212.39 333.357 212.202 335.914 213.481Z" fill="white"/>
<rect x="285.141" y="78.3281" width="98.6886" height="91.2051" fill="black"/>
<g filter="url(#filter1_d_2329_148)">
<path d="M302.106 59.8321C293.687 60.5805 285.892 64.1975 279.749 70.2779C274.261 75.7346 270.394 83.4675 269.272 91.1693C269.022 92.9154 268.96 102.956 269.022 125.905C269.147 157.959 269.147 158.209 269.833 160.735C273.481 174.423 283.085 184.089 296.711 187.769C300.859 188.86 303.447 188.922 335.376 188.829C369.426 188.704 367.929 188.767 373.261 186.958C385.921 182.655 395.275 171.523 397.583 158.053C398.019 155.683 398.05 150.85 397.957 122.912L397.863 90.5145L397.177 87.8641C394.246 76.8259 387.511 68.407 377.627 63.4492C375.163 62.2331 370.268 60.6428 367.181 60.0816C364.811 59.645 306.877 59.4268 302.106 59.8321ZM310.275 89.7661C314.048 90.6392 318.788 91.7305 320.783 92.2294L324.432 93.1025L326.708 92.4477C329.951 91.5435 336.748 91.5435 340.022 92.4477L342.361 93.0713L350.936 91.1069C355.675 90.0156 360.384 88.893 361.381 88.6124C364.468 87.7705 367.836 88.7995 370.019 91.2005C372.108 93.5079 372.014 92.3542 372.014 119.513C372.014 142.93 371.983 144.209 371.422 145.674C370.705 147.545 369.052 149.416 367.368 150.32C365.404 151.349 361.943 151.256 359.76 150.133C357.951 149.198 356.548 147.483 355.738 145.269C355.363 144.209 354.615 143.304 352.994 141.808C351.746 140.716 350.593 139.75 350.406 139.687C350.25 139.656 349.127 140.217 347.973 140.966C346.789 141.714 344.762 142.743 343.483 143.273L341.145 144.209L341.051 145.924L340.958 147.67L344.419 147.794C347.786 147.888 347.942 147.919 348.659 148.761C349.377 149.634 349.408 149.759 349.408 155.34C349.408 160.672 349.377 161.109 348.753 161.888L348.098 162.73L338.681 162.637L329.233 162.543L327.706 161.608C326.552 160.859 325.959 160.205 325.242 158.801L324.307 156.962L324.213 150.195L324.089 143.398L323.122 143.055C322.561 142.899 321.313 142.244 320.316 141.652L318.476 140.56L314.952 142.462C312.053 144.021 311.398 144.52 311.273 145.206C310.961 146.734 309.09 149.01 307.407 149.977C303.166 152.378 298.115 150.85 295.87 146.516L294.841 144.552V119.95C294.841 96.626 294.872 95.2852 295.433 93.8197C296.431 91.1381 297.959 89.6414 300.578 88.7371C301.451 88.4565 302.449 88.2071 302.792 88.1759C303.135 88.1759 306.502 88.8931 310.275 89.7661Z" fill="white"/>
</g>
<defs>
<filter id="filter0_d_2329_148" x="0" y="0" width="668" height="306" filterUnits="userSpaceOnUse" color-interpolation-filters="sRGB">
<feFlood flood-opacity="0" result="BackgroundImageFix"/>
<feColorMatrix in="SourceAlpha" type="matrix" values="0 0 0 0 0 0 0 0 0 0 0 0 0 0 0 0 0 0 127 0" result="hardAlpha"/>
<feOffset dy="4"/>
<feGaussianBlur stdDeviation="10"/>
<feComposite in2="hardAlpha" operator="out"/>
<feColorMatrix type="matrix" values="0 0 0 0 0 0 0 0 0 0 0 0 0 0 0 0 0 0 0.03 0"/>
<feBlend mode="normal" in2="BackgroundImageFix" result="effect1_dropShadow_2329_148"/>
<feBlend mode="normal" in="SourceGraphic" in2="effect1_dropShadow_2329_148" result="shape"/>
</filter>
<filter id="filter1_d_2329_148" x="265" y="59.6172" width="137" height="137.242" filterUnits="userSpaceOnUse" color-interpolation-filters="sRGB">
<feFlood flood-opacity="0" result="BackgroundImageFix"/>
<feColorMatrix in="SourceAlpha" type="matrix" values="0 0 0 0 0 0 0 0 0 0 0 0 0 0 0 0 0 0 127 0" result="hardAlpha"/>
<feOffset dy="4"/>
<feGaussianBlur stdDeviation="2"/>
<feComposite in2="hardAlpha" operator="out"/>
<feColorMatrix type="matrix" values="0 0 0 0 0 0 0 0 0 0 0 0 0 0 0 0 0 0 0.25 0"/>
<feBlend mode="normal" in2="BackgroundImageFix" result="effect1_dropShadow_2329_148"/>
<feBlend mode="normal" in="SourceGraphic" in2="effect1_dropShadow_2329_148" result="shape"/>
</filter>
</defs>
</svg>
