<svg xmlns="http://www.w3.org/2000/svg" viewBox="0 0 206.1 45.89"><defs><style>.cls-1{fill:#09f;}.cls-1,.cls-2,.cls-3{fill-rule:evenodd;}.cls-2,.cls-4{fill:#01266c;}.cls-3{fill:#8cc152;}</style></defs><g id="Layer_2" data-name="Layer 2"><g id="Layer_1-2" data-name="Layer 1"><g id="Layer_2-2" data-name="Layer 2"><g id="Layer_1-2-2" data-name="Layer 1-2"><path class="cls-1" d="M15.51,27A4.52,4.52,0,1,1,11,31.58v0A4.51,4.51,0,0,1,15.5,27Z"/><path class="cls-2" d="M37.62,3.8A4.52,4.52,0,1,1,33.1,8.32,4.52,4.52,0,0,1,37.62,3.8Z"/><path class="cls-3" d="M23,9.41A13.54,13.54,0,0,0,9.45,22.92a13.69,13.69,0,0,0,1.13,5.43A5.87,5.87,0,0,1,13.51,26,10,10,0,1,1,23,33h0a10,10,0,0,1-1.72-.15A5.63,5.63,0,0,1,19.37,36,13.55,13.55,0,0,0,26.45,9.88,13.86,13.86,0,0,0,23,9.41Z"/><path class="cls-3" d="M42.63,11.19a5.7,5.7,0,0,1-2.76,2.46A19.2,19.2,0,1,1,32.29,6a5.77,5.77,0,0,1,2.47-2.76,22.94,22.94,0,1,0,7.87,7.89Z"/><path class="cls-4" d="M62.18,30.87c5.27,0,7.82-2.64,7.82-5.72,0-6.77-10.72-4.43-10.72-7.83,0-1.15,1-2.1,3.51-2.1a10.28,10.28,0,0,1,5.1,1.45l1.32-3.25a12.43,12.43,0,0,0-6.4-1.63c-5.24,0-7.77,2.61-7.77,5.75,0,6.85,10.72,4.47,10.72,7.93,0,1.13-1,2-3.55,2a10.89,10.89,0,0,1-6.11-1.95l-1.45,3.21A13.15,13.15,0,0,0,62.18,30.87Z"/><path class="cls-4" d="M77.8,16.17a10.91,10.91,0,0,0-6.11,1.71l1.47,2.87a6.83,6.83,0,0,1,4.08-1.32c2.21,0,3.27,1,3.27,2.8H77.24c-4.32,0-6.08,1.73-6.08,4.24s2,4.29,5.29,4.29c2.08,0,3.56-.68,4.32-2v1.76h3.85V22.46C84.62,18.17,82.1,16.17,77.8,16.17ZM77.48,28c-1.45,0-2.32-.69-2.32-1.72s.61-1.66,2.53-1.66h2.82V26A3,3,0,0,1,77.48,28Z"/><path class="cls-4" d="M92.38,16.09c0-1.4.66-2.06,1.87-2.06a3,3,0,0,1,1.66.5l1.08-3a5.92,5.92,0,0,0-3.14-.76c-3.53,0-5.47,2.08-5.47,5.27v.63H86.19v3.16h2.19v10.7h4.1V19.85H96V16.69H92.38Z"/><path class="cls-4" d="M111.2,23.52a7,7,0,0,0-6.63-7.35c-.24,0-.49,0-.74,0A7.22,7.22,0,0,0,96.28,23c0,.15,0,.3,0,.44,0,4.22,3.19,7.3,8.08,7.3a7.41,7.41,0,0,0,5.85-2.29L108,26.1a4.74,4.74,0,0,1-3.55,1.37c-2.16,0-3.66-1.08-4.06-2.85h10.7A8.64,8.64,0,0,0,111.2,23.52Zm-7.35-4.25a3.36,3.36,0,0,1,3.48,3h-7A3.37,3.37,0,0,1,103.85,19.27Z"/><path class="cls-4" d="M121.38,27a2.74,2.74,0,0,1-1.66.53A1.66,1.66,0,0,1,117.94,26a2.08,2.08,0,0,1,0-.35V19.85h3.53V16.69H118V13.24h-4.11v3.45h-2.18v3.16h2.18v5.83c0,3.37,2,5.08,5.3,5.08a5.79,5.79,0,0,0,3.34-.89Z"/><path class="cls-4" d="M134,16.38,130,26l-4-9.61H121.8l6.13,14.28v.13c-.55,1.26-1.18,1.76-2.32,1.76a3.6,3.6,0,0,1-2.31-.89l-1.5,2.92a6.23,6.23,0,0,0,4,1.29c2.55,0,4.5-1,5.87-4.45l6.4-15Z"/><path class="cls-4" d="M157.18,16.17a6.39,6.39,0,0,0-5.08,2.31,5.3,5.3,0,0,0-4.66-2.31A5.81,5.81,0,0,0,143,18V16.38H139V30.55h4.11V23.44c0-2.53,1.29-3.72,3.1-3.72s2.69,1.06,2.69,3.35v7.48h4.16V23.44c0-2.53,1.29-3.72,3.13-3.72,1.66,0,2.69,1.06,2.69,3.35v7.48H163V22.44C163,18.12,160.55,16.17,157.18,16.17Z"/><path class="cls-4" d="M168.22,14.4a2.37,2.37,0,0,0,2.56-2.17V12a2.31,2.31,0,0,0-2.38-2.23h-.18a2.31,2.31,0,0,0-.52,4.59,2.26,2.26,0,0,0,.52,0Zm-2.05,16.15h4.11V16.38h-4.11Z"/><path class="cls-4" d="M182.19,16.17A6.2,6.2,0,0,0,177.5,18V16.38h-3.92V30.55h4.1v-7c0-2.61,1.43-3.82,3.4-3.82S184,20.79,184,23.08v7.48h4.15V22.44C188.1,18.12,185.53,16.17,182.19,16.17Z"/><path class="cls-4" d="M199.21,27a2.71,2.71,0,0,1-1.65.53A1.66,1.66,0,0,1,195.78,26a2.08,2.08,0,0,1,0-.35V19.85h3.53V16.69h-3.53V13.24h-4.11v3.45H189.5v3.16h2.18v5.83c0,3.37,1.95,5.08,5.3,5.08a5.79,5.79,0,0,0,3.34-.89Z"/><path class="cls-4" d="M204.36,13.38a3.28,3.28,0,0,0-.43-.57.65.65,0,0,0-.24-.15.89.89,0,0,0,.6-.26.79.79,0,0,0,.23-.56.73.73,0,0,0-.14-.42.67.67,0,0,0-.36-.28,2.63,2.63,0,0,0-.74-.08h-1V14h.46V12.72H203a.59.59,0,0,1,.37.1,2.15,2.15,0,0,1,.49.67l.26.46h.56Zm-1-1.06h-.57v-.87h.54a1.75,1.75,0,0,1,.46.05.43.43,0,0,1,.2.15.33.33,0,0,1,.07.23.39.39,0,0,1-.14.32,1,1,0,0,1-.6.12Z"/><path class="cls-4" d="M203.38,9.79a2.7,2.7,0,1,0,.05,0Zm0,4.91a2.24,2.24,0,1,1,2.23-2.25h0a2.22,2.22,0,0,1-2.22,2.24Z"/></g></g></g></g></svg>